<svg version="1.1" viewBox="0 0 16 16" xmlns="http://www.w3.org/2000/svg"><g transform="matrix(.94489 0 0 .94489 -2.7747e-5 -264.63)" fill="#bebebe"><path d="m6.5451 296.98c-0.58135-0.10903-1.0898-0.71699-1.1356-1.358l-0.02112-0.29512-0.39958-0.25815c-1.9273-1.2452-2.9986-2.9549-3.1228-4.9838-0.04557-0.74477 0.13909-2.0629 0.31646-2.2588 0.20148-0.22263 0.70812 0.0355 1.3172 0.67102 0.70002 0.73044 1.1223 1.5767 1.3354 2.6762 0.1194 0.61596 0.1249 0.87338 0.02109 0.98812-0.19845 0.21934-0.55176 0.0372-0.55176-0.28449 0-0.23471-0.15759-0.98101-0.28655-1.357-0.14597-0.42562-0.28004-0.69875-0.52518-1.07-0.18629-0.2821-0.75939-0.87616-0.84524-0.87616-0.05194 0-0.08044 0.1174-0.13825 0.56951-0.1605 1.2551 0.1298 2.4765 0.84334 3.5485 0.31359 0.47108 1.18 1.3126 1.7482 1.698 0.25724 0.17447 0.47744 0.31722 0.48934 0.31722s0.13657-0.11482 0.27704-0.25515c0.53989-0.53934 1.2757-0.54257 1.8104-8e-3 0.18026 0.18026 0.43821 0.65095 0.43827 0.79973 3.1e-5 0.0666 0.04594 0.0767 0.3505 0.0767s0.35047-0.0101 0.3505-0.0767c8.7e-5 -0.14878 0.25802-0.61947 0.43827-0.79973 0.53464-0.53463 1.2705-0.53141 1.8104 8e-3 0.14047 0.14033 0.26514 0.25515 0.27704 0.25515s0.2321-0.14275 0.48934-0.31722c0.56815-0.38533 1.4346-1.2269 1.7482-1.698 0.71354-1.0719 1.0038-2.2934 0.84334-3.5485-0.05781-0.45211-0.08631-0.56951-0.13826-0.56951-0.08556 0-0.64518 0.58063-0.83817 0.86964-0.25076 0.37553-0.38486 0.64674-0.53225 1.0765-0.12896 0.37602-0.28655 1.1223-0.28655 1.357 0 0.20831-0.14527 0.37673-0.32495 0.37673-0.32003 0-0.3668-0.24937-0.20415-1.0884 0.22086-1.1393 0.6493-1.9722 1.4024-2.7263 0.6124-0.61321 1.0528-0.82936 1.2487-0.61287 0.09916 0.10958 0.22567 0.68119 0.29135 1.3164 0.244 2.36-0.86668 4.4849-3.0977 5.9262l-0.39958 0.25815-0.02094 0.29259c-0.05185 0.7246-0.67199 1.369-1.3231 1.3748-0.53996 5e-3 -1.0528-0.34561-1.2797-0.87454l-0.06107-0.14238h-0.78618l-0.06107 0.14238c-0.25555 0.59575-0.8908 0.96825-1.467 0.8602zm0.64033-0.72322c0.41712-0.30391 0.41972-1.1731 0.0044-1.4754-0.14687-0.1069-0.46378-0.14349-0.6657-0.0769-0.59903 0.1977-0.68072 1.2429-0.1231 1.5752 0.20405 0.12158 0.602 0.10993 0.78438-0.0229zm3.3309 0.0318c0.30209-0.15411 0.47108-0.64191 0.36221-1.0455-0.06401-0.23731-0.26904-0.47211-0.47025-0.53851-0.20192-0.0666-0.51883-0.03-0.66569 0.0769-0.36422 0.26511-0.4209 1.0293-0.10284 1.3866 0.18419 0.20693 0.59625 0.26363 0.87658 0.12061zm-3.2768-3.2336c-0.19432-0.0993-0.32649-0.35319-0.28873-0.55451 0.01483-0.0791 0.08716-0.20142 0.16072-0.2719 0.11078-0.10613 0.17074-0.12814 0.34908-0.12814 0.18228 0 0.23612 0.0208 0.35084 0.13551 0.23465 0.23465 0.21402 0.57778-0.04622 0.76878-0.16672 0.12237-0.35031 0.13991-0.5257 0.0503zm2.027 0.0117c-0.33382-0.14915-0.40742-0.56896-0.14564-0.83073 0.11472-0.11472 0.16856-0.13552 0.35084-0.13552 0.17833 0 0.2383 0.022 0.34908 0.12815 0.41127 0.39402-0.03566 1.0698-0.55427 0.8381zm-2.9867-1.6598c-0.21522-0.0739-0.33363-0.25421-0.32829-0.49992 0.0038-0.17278 0.02692-0.22194 0.16364-0.34723 0.44416-0.40704 1.089 0.11552 0.77604 0.62884-0.13495 0.22133-0.36419 0.30318-0.61139 0.21831zm2.0126 0c-0.17148-0.0579-0.35198-0.29187-0.35198-0.45631 0-0.16624 0.11976-0.37959 0.25936-0.46206 0.25893-0.15295 0.59888-0.0523 0.72561 0.21471 0.0886 0.18671 0.08348 0.31725-0.01902 0.48535-0.13519 0.22173-0.36341 0.30287-0.61398 0.21831zm2.0152 0c-0.08771-0.0296-0.19407-0.11409-0.2519-0.20008-0.33777-0.50237 0.2962-1.0578 0.75129-0.65826 0.43063 0.3781 0.04444 1.0419-0.4994 0.85834zm-2.0557-2.0774c-0.08971-0.0844-1.3001-1.6437-1.4277-1.8392-0.0037-6e-3 -0.13447 0.0577-0.2907 0.14065-1.1152 0.5922-2.4736 0.23597-3.2101-0.84181-0.58347-0.85393-0.58962-1.8994-0.01622-2.7567 0.91518-1.3683 2.7146-1.5494 3.8666-0.38923 0.3137 0.31595 0.5159 0.64409 0.66269 1.0755 0.06169 0.18129 0.08154 0.36357 0.08017 0.73625-0.0017 0.47702 0.0015 0.4945 0.08765 0.47362 0.22263-0.054 0.63265-0.0726 0.81404-0.037l0.19888 0.039-0.0017-0.48546c-0.0013-0.36288 0.01899-0.54631 0.08028-0.72641 0.29858-0.87748 1.0024-1.5528 1.8478-1.773 0.98866-0.25752 2.0775 0.18377 2.6814 1.0867 0.57441 0.85881 0.56735 1.9027-0.01867 2.7603-0.73232 1.0718-2.0964 1.4282-3.2076 0.83821-0.15623-0.083-0.28704-0.14625-0.2907-0.14065-0.0037 6e-3 -0.29756 0.3946-0.65313 0.86445-0.69537 0.91886-0.85458 1.0952-0.9888 1.0952-0.04743 0-0.14385-0.0542-0.21427-0.12047zm0.82875-1.5222 0.56452-0.74252-0.09945-0.12896c-0.0547-0.0709-0.20662-0.18974-0.3376-0.26404-0.22427-0.12721-0.26497-0.13508-0.69814-0.13508-0.42429 0-0.48239 0.0106-0.74876 0.13683-0.16355 0.0775-0.32844 0.19254-0.38026 0.2653l-0.09148 0.12848 0.57316 0.75464c0.31524 0.41506 0.59123 0.74863 0.61332 0.74126 0.02209-7e-3 0.2942-0.34752 0.60469-0.75591zm-3.1851-0.56946c0.34586-0.0901 0.57424-0.21423 0.82413-0.44797 0.20111-0.18812 0.2432-0.24898 0.43622-0.63073 0.12878-0.25472 0.18318-0.70642 0.12794-1.0624-0.17574-1.1327-1.2596-1.831-2.3865-1.5375-0.55804 0.14535-0.96903 0.48837-1.2201 1.0183-0.13272 0.28016-0.13953 0.3202-0.13953 0.82023 0 0.50004 0.0068 0.54008 0.13953 0.82024 0.39776 0.83966 1.3064 1.2574 2.2182 1.0199zm-0.76397-1.4022c-0.11669-0.0634-0.25766-0.30302-0.25766-0.43795 0-0.13991 0.14314-0.37617 0.26658-0.44001 0.16158-0.0836 0.43363-0.0813 0.55628 5e-3 0.12303 0.0862 0.22854 0.28719 0.22854 0.43542 0 0.38086-0.44598 0.62693-0.79374 0.43795zm6.9035 1.4006c0.55804-0.14535 0.96903-0.48837 1.2201-1.0183 0.13272-0.28016 0.13953-0.3202 0.13953-0.82024 0-0.50003-0.0068-0.54007-0.13953-0.82023-0.25102-0.5299-0.66202-0.87292-1.2201-1.0183-1.1238-0.29271-2.2054 0.40099-2.3858 1.5302-0.22102 1.3835 1.022 2.502 2.3858 2.1468zm-0.77551-1.4033c-0.13879-0.0753-0.25245-0.27125-0.25245-0.43522 0-0.14823 0.10551-0.34924 0.22854-0.43542 0.12264-0.0859 0.39469-0.0882 0.55628-5e-3 0.12344 0.0638 0.26658 0.3001 0.26658 0.44002 0 0.13991-0.14314 0.37618-0.26658 0.44001-0.15645 0.0809-0.3781 0.0789-0.53237-5e-3zm2.8102-2.7474c-0.03832-0.0294-0.14384-0.11871-0.2345-0.19846l-0.16483-0.14499 0.1824-0.26003c0.20216-0.28819 0.39656-0.69766 0.48303-1.0174 0.06339-0.23439 0.03878-0.29815-0.07568-0.19613-0.09799 0.0873-0.55547 0.31912-0.80513 0.40791-0.58733 0.20889-0.5381 0.20645-4.5556 0.22601-3.8524 0.0188-4.6169-2e-3 -5.1425-0.14022-0.28899-0.076-0.83111-0.31933-1.0355-0.46486-0.07176-0.0511-0.14192-0.0815-0.1559-0.0675-0.07618 0.0762 0.24662 0.87717 0.49004 1.216 0.08456 0.1177 0.15375 0.23019 0.15375 0.24997 0 0.0198-0.10258 0.1194-0.22795 0.22139l-0.22796 0.18543-0.07892-0.10102c-0.2766-0.35407-0.59501-1.0369-0.71361-1.5304-0.09799-0.40774-0.1294-1.0845-0.05664-1.2201 0.14296-0.26656 0.44186-0.24325 0.63563 0.0496 0.11726 0.17719 0.5293 0.51196 0.80028 0.65021 0.08524 0.0435 0.3026 0.12541 0.48302 0.18206l0.32803 0.103h8.674l0.3539-0.12001c0.19464-0.066 0.4774-0.19983 0.62835-0.29739 0.25582-0.16534 0.70436-0.58466 0.70436-0.65846 0-0.0722 0.25087-0.12102 0.35508-0.0691 0.18271 0.0911 0.22203 0.22865 0.1958 0.68493-0.03943 0.68588-0.21667 1.2654-0.56529 1.8483-0.26318 0.44005-0.34304 0.52618-0.42764 0.46128z" style="stroke-width:.043808"/></g></svg>
